<svg xmlns="http://www.w3.org/2000/svg" viewBox="0 0 246.05 246.13"><defs><style>.cls-1{fill:#a6a6a6;}</style></defs><title>border line</title><g id="Layer_2" data-name="Layer 2"><g id="Layer_1-2" data-name="Layer 1"><path class="cls-1" d="M245.13,245.4c0,.51.14.22.12-1.2l-.16-1Z"/><path class="cls-1" d="M245.44,235.85c-.08-1.67-.22-3.6-.38-2.52.16,1.66.1,2.06.29,3.84a7.39,7.39,0,0,1-.12,2.24c0,.5,0,2.2.07,3a62.91,62.91,0,0,0,0-6.64C245.36,235.22,245.41,235.73,245.44,235.85Z"/><path class="cls-1" d="M245.69,97.07v0Z"/><path class="cls-1" d="M245.79,11.08a8,8,0,0,0,0,1A8.41,8.41,0,0,0,245.79,11.08Z"/><path class="cls-1" d="M241.12.24H242A8.55,8.55,0,0,0,241.12.24Z"/><path class="cls-1" d="M245.69,97.07l.06-2.3A19.89,19.89,0,0,0,245.69,97.07Z"/><path class="cls-1" d="M245,216.71c0,.48,0,.88,0,1.25l0-1.17Z"/><path class="cls-1" d="M245.83,135v.7l.07.58Z"/><path class="cls-1" d="M245.85,164.06a3.13,3.13,0,0,0-.19-1.14,11,11,0,0,1,.09,1.44S245.81,164.28,245.85,164.06Z"/><path class="cls-1" d="M245.61,210.19l0,.82Z"/><path class="cls-1" d="M245.86,114.15a1.08,1.08,0,0,0,0-.26S245.88,114,245.86,114.15Z"/><path class="cls-1" d="M211.74,244.74s0,0,0,0C211.91,244.75,212,244.74,211.74,244.74Z"/><path class="cls-1" d="M245.46,245.43H245c-.05,0-.11.05-.11.08Z"/><path class="cls-1" d="M214.25.06h0Z"/><path class="cls-1" d="M.23,34c.12-2.79.16,4.55.3.34C.47,34.69.31,30.47.23,34Z"/><path class="cls-1" d="M245.06,216v0Z"/><path class="cls-1" d="M.53,34.29h0v0Z"/><path class="cls-1" d="M152.34.14A4.21,4.21,0,0,0,153,.2,4.8,4.8,0,0,0,152.34.14Z"/><path class="cls-1" d="M198.46.34l-1.14,0Z"/><path class="cls-1" d="M128.4.34c-.62,0-.83,0-1.68,0l.26,0C127.28.33,127.69.32,128.4.34Z"/><path class="cls-1" d="M103.47.34l.46,0h.79Z"/><path class="cls-1" d="M136,244.81a11.39,11.39,0,0,1,1.15.12C136.76,244.83,140.42,244.8,136,244.81Z"/><path class="cls-1" d="M245.12,216.7a3,3,0,0,1-.06-.74v.83C245.08,216.86,245.1,216.87,245.12,216.7Z"/><path class="cls-1" d="M127.38,1.45l-3.95,0Z"/><path class="cls-1" d="M1.38,201.78l0,.91C1.4,202.34,1.4,202,1.38,201.78Z"/><path class="cls-1" d="M111.67,1.45c-.7-.05-1.45-.08-2.23-.1-.16,0-.35,0-.46,0Z"/><path class="cls-1" d="M137.16,244.93h0Z"/><path class="cls-1" d="M163.24,244.6c-3.77,0-1.77.18-2.57.29-4.51.05-2.09-.14-3.62-.23-2.81,0-5,.21-7.07.21-.15,0-.56,0-.08-.08-3,.14-8.83,0-12.29.19a2.76,2.76,0,0,1-.45,0c.56.1.64.19.53.26a37.13,37.13,0,0,1-3.78,0,10.41,10.41,0,0,0,1.61-.08l-1.77.05c-1.6-.17,2.42-.06,2.42-.19-3.46.06-7.49.2-10.13.15-.56-.17,6.19-.05,2.65-.2l4.1.06c-3.13-.27,2.49,0-.38-.27-5.4,0-6,.09-11.42,0-1.21.09.4.14-.81.23-7.64.17-6-.42-11.64-.2a33.78,33.78,0,0,1-6,.22l1.37-.19c-5.22,0-3,.27-8.45.14,1-.07,4.1-.06,3.31-.08a50.88,50.88,0,0,0-5.23.11L93,244.8,75.12,245c.34,0,1.4-.11,0-.16-7.77.09-16.58,0-24.07-.12l-2.86.15c-.66,0-1.23-.07-.51-.1-2.92-.06-.15.09-1.56.15-1.66,0-2.19-.08-1.14-.13-5.15.13-14.67.27-20.1.11l1.06,0c-4.22-.06-4.77.3-8.69.16l.76,0L1.25,245c0-1.53,0-3,0-4.39s.06-3,.09-4.32c-.21-1.33.09-9.08-.2-9.67.14-5.24.2-3.74.3-11.11,0-2-.19-2.94-.22-5.37l.15-.06-.16-3.31L1.44,205l0-2.28a7.91,7.91,0,0,1-.12,1.79c0-1.78,0-3.95,0-5.69l.08-2.18a5.55,5.55,0,0,1,.07-.91l-.13-8.44c.06.18.08,1.6.12,2.72-.15-4.51.17-.82,0-4.95,0,.55-.09-.3-.12-.39.09-2.06.09-6.75,0-10.21l.11.66c0-6.26,0-13.2-.05-20.23-.05,2.52-.23,1.95-.25-.12l.16-.82c-.1-1.33-.06,2.15-.18-.58s.18-1.76.24-.26l-.06-3.19c.05-.18.07.56.13.76-.1-1.31.17-5.51,0-7.4l.05-.18c0-7,0-10.21-.06-15.93-.14-.11-.11-2.35-.22-4.06,0-4.2.15-8.87.14-13.93-.07-3.57-.12-1-.2-2.65.12-.26.11-5.32.2-2.69,0-6.08,0-7.77-.13-15.46-.05.83-.07,1.77-.11,1.29a16.73,16.73,0,0,1,.11-3V87c-.19-8.63.38-19.92.11-26.8v.39l-.14-7.13c0-3.28.1,2,.18-.46-.21-7.69,0-12.15-.11-18.48.38-4.91,0-17.4.21-24l-.09.38a33.07,33.07,0,0,1,.08-3.33c-.07.18-.08,1.85-.13.79,0-2.32,0-4.67,0-7.07l18,.1,18.59.14c5.43,0,3.08-.46,9.93-.25l-1.94.17c11-.2,22.41,0,33.14-.16a15.34,15.34,0,0,1-1.7.09c1.13.06,3.22.06,5,0l2.36-.05a5.88,5.88,0,0,0,1-.08c1.67,0,.38.09,1.41.14,2.28.07,5.71-.15,6.92,0A7.75,7.75,0,0,1,93,1.46c1.48-.06,6.91,0,5.49-.13,4,.07,7.7-.06,10.91,0,2.1-.15,6.9.08,7.56-.14-.29.22,7.06.18,9.61.07-.85.07,2.22.08,1.22.17,2.9,0,5.57-.05,5.06-.16,5.35.27,10.76-.22,13.78.13l24.38-.26c-.28.23-8.58,0-8.25.26,7.37-.09,11.62-.29,18.92-.23,1.89,0-1.07.1-1.71.13,7.36-.09,14.23,0,20.78-.1l-.45,0-.94,0a16,16,0,0,0,2.85-.07l-1.26,0c-2.06-.15,5.13-.31,5.36-.39-2.19.3,6.47.08,3,.45a5.94,5.94,0,0,0,1.72-.14c1.26,0,1.66.06.38.14,4.62-.06,3-.17,7.17-.16,0,.05-.86.07-1.29.12,2.12-.09,4.25-.19,7.79-.15-.21,0,.2.07-.86.07,6.08,0,10.36-.26,17-.16-2,.21,2.27.07,2.62.25H245l0,1.52,0-.72c0-.22,0-.54.05-.61l0,2.18c0,.75,0,1.47,0,2.18,0,1.43,0,2.8,0,4.15l-.08-2.34,0,5.89.07-3.33c.1,3.18.24-.34.18,3.84,0-.85,0,3.14-.11,4.78h0c.06,1.55.12,3.15.08,5.47-.06.61-.21-.48-.25-.09.16,1.53,0,7.36.21,9.3,0-.65-.14-.68-.16-.47l.13,1.29c0,1.45-.06,1.66-.14,1.43,0,4.37.24-1.39.14,3.8,0-.41,0-.21,0-1.06-.05,5.22.08,10.08,0,14.87-.19,1.42,0-4.18-.21-2.57,0,6.92.23,14.32.18,21l0-1.25c.27.93-.13,5,0,8.37,0-.83-.15-1.09-.12-.87,0,4.58.07,9.37.15,16.31l-.07-.86c-.06,2.7,0,7.11-.07,10,.07.86.06,2.53.16,1.52-.39,9,.21,17.15-.11,25.13,0-1-.06-2.28-.06-1.52l.06,6.8a20.41,20.41,0,0,0,.16-2.32c.07.86.12,2.78.12,4.46-.08-3.06-.19,0-.25,1.35,0-.22.07.23.11.12-.21,3.55.23.59.09,5.44l-.06-.26c0,1.81.11,3.49.1,5.44-.14.81-.07-1.93-.18-2.05,0,2.74.26,5.42.12,7.9,0-1.16-.05-2.84-.07-4-.16,2.71-.12,3-.14,5v-.2l-.07,4.65,0-1.18c.35,3.43.07,7,.3,11.63-.22-4.5-.13-.75-.28-1.09a17,17,0,0,1-.13,2.47c.12,2.19-.1,3.65.08,6.74,0,.14,0,2.34-.13,1.85,0,2.84.09-.67.15-.44.16,4.39-.2,10.32,0,16.63.1,5.44.26,6.44.34,11.49-.07,1.71-.17-1.39-.17-1.39-.07,2.75-.06,4.82,0,7.41,0-.53-.07,0-.13.8,0,2.08.18,1.39.11,4.13-.06-.47-.14-1.07-.2-2.07.06,2.45.12,4.87.18,7.4-.08.68-.13-1.53-.18-2.42,0,2.85.07,7.39.21,8.27l.05-1.83c0,1-.12.53-.14-.24a16.14,16.14,0,0,1,.09-3.66l0,1.81c.29-1.86,0-7.26,0-10.89l.21,1.51-.17-3.73c0-.79.17-1.33.2.46.1-2.6-.07-2.3,0-4.54,0-.25,0-.14,0,.09l-.06-2.55c0,.5.14-.42.11,1.14.12-4.57-.15-7.37,0-9.09l0,.38c-.07-6.34-.16-.61-.34-5.37l.38-3.2-.15-.62a8.13,8.13,0,0,1,.08-1.71c-.11-2.44-.07.41-.17-1,.14-3.15-.06-8.69.18-9.4-.12-1.13-.09,3-.17-.35.26-1-.05-3.88.07-6.76.14.88.07,3.61.19.73-.23-1.74.05-5.6,0-8-.18-.12-.07-5.28-.13-9.35.06.26.1-7.67.16-11.45l0,.11c-.18-.74-.14-4.64-.18-7.49.11.11.15.62.2,2.17v-2.68c-.06-.63-.09-1.47-.11-3.2l.14.67c0-3.56-.17-7.17-.07-11.75-.13-.26-.36,3.64-.45-1.2.07-.18.19-.36.22.91,0-.42-.06-1.48,0-2.32l.12,1.94c0-2.09-.1-1.09-.09-2.76.1,0,.07-1.24.15-1,0,.43,0,1.46,0,2.1,0-1.88.07-4.16.15-4.91-.06.16-.13,0-.15-1.38a25.29,25.29,0,0,1,.17-3.29,28.76,28.76,0,0,0-.14-3.2,9.82,9.82,0,0,1,.11-1.63c-.07-1.85,0-8.61-.18-6.53v.17h0c-.15-6,.08-12.55,0-18.54h0c-.05-3.58,0-8-.13-10.52,0-1.06.09-2.5.14-2,0-2.74-.09-3,0-7a19.56,19.56,0,0,1,.07,2.81c0-3.55.12-4.35,0-8.17.13,1.3.16-2.67.12-4.36L245.8,53c0-1.9,0-3.56,0-5.25l.16.91c.21-7.27-.34-13.11,0-18.65-.12-1.92-.08,3.95-.22,2.23,0-3.34.26-6.83.26-7.87.09-4.59-.24-4.28-.18-9.07-.06.61-.22,1.19-.27-2.39,0-3.35.25-4.12.29-2a6.15,6.15,0,0,1,0,1.16c0,1.08.05,2.5.11,1.18l-.06-.44c.06-1.66.06-6.26.15-5.18-.05-2.53-.09-1.08-.12.79,0-1.51,0-2.79,0-4,0-1.37,0-2.68,0-4.11l-4,0c.71,0,1.35.1.65.1-6.48-.07-2.85.11-7.24.14-2.5-.09.89-.22-3.53-.14-2.7-.06-.57-.16.5-.21-4,.12-7.52-.07-9.82-.09l2.12,0c-1.27,0-2.31,0-3.37,0l1.21.12c-1.24,0-2.3,0-2.27-.07-1.29.07,1,.19-1.57.3-1.66-.06-5,.06-5.63-.09,5.23.05-.57-.16,3.85-.19-.86,0-1.9,0-3.15,0-.18,0,.18,0,.52,0-5-.14-2.3.18-7.48.17.66-.09-1.2-.17-2-.15,2.09,0,1,.15-.92.22-3.32-.07-3.61,0-5.35,0l2,0c-.67.08-2.34.07-4.65.1-.2-.07,2.1,0,1.28-.08-2.57.16-5.81-.16-9.4-.05-1.66-.06-.16-.17-1.62-.21-4,.11-4.35-.12-8.57,0,1.22.12,1.43.09-1.54.21l6.94-.09-4.46.18c2.1,0,4.43-.08,5.68-.06-2.12.1-1.9.07-.9.17-2.87-.18-5.68.1-9,0l.1-.29c-5-.13-8.85.15-15.32.08l2.08.05c-.87.11-4,0-6.09.06.2-.1-1.11-.13-2-.2.1.08-4.74,0-5.33.19L144.77.26c-5.23-.05-6,.29-11,.25,1.52-.1-.77-.17,2.6-.25a30.49,30.49,0,0,0-3.21,0c-1-.06-4.65.13-6.19,0a24.54,24.54,0,0,1-2.82.14c-.21,0,0,0,0,0s-2.94.06-1.3.17C117.7.3,108.43.63,103.93.37L92.55.44a1.6,1.6,0,0,1,.64,0c-4.59-.09-2.82.29-8,.18C82.49.42,87.92.5,86.26.44c-.72-.33-6.29,0-9.8-.15l.85,0C74.63.16,70.77.4,66.39.37c0,0,.21,0,0,0-3,.17-8.67.22-12.88.27,1.31-.13,1.91-.07,1.11-.2-1.89,0,.56.21-3.21.25-1.23-.07-4-.13-4.31-.27h3.56c-1.83-.18-4.61,0-6.48,0l.24-.08C39,.28,38.91.48,33.05.47l.6.06c-3.2.19-2.68-.11-5.87,0l-1-.2c-2.11,0-7.4.19-11.19.23C17.77.45,22.2.37,24.94.28c-2.09,0-7.11,0-8.21.12.85,0,1.91-.07,2.74,0C16.91.51,13.52.59,9.35.59,9.59.46,8.51.41,6.85.38L.41.34c0,1.27,0,2.48,0,3.53S.31,5.58.26,6.11C.4,13.49.2,20.75.22,29.36c.3-3.06,0,2.51.31,2,0,2,0,2.77,0,2.95L.35,40.36C.26,41.8.28,38.45.21,38.64.19,43,.08,40.48,0,43.38c.11-.6.16,1.52.11,4l.15-3.52C.42,50,0,49.18.16,55.36l-.1-2c.06,3.17,0,11.69.25,14.8,0,.56-.12,1.3-.14-.09C.13,75.7.43,85,.28,90.88L.2,90.3c0,1.41.14,2.46.07,4.23,0-.09-.08-.57-.08.09s.13,3.75.09,5.63l-.09-1.6C.09,106,.4,110,.45,116.19c-.22,0-.29,5.8-.33,8.7l0-.1c0,8.61.18,14.62.27,22.59-.24,5-.1,16.76-.24,24.71,0-1.21.18.2.2,1.61,0,1.87.15,5.16,0,4.86v-.66c-.2,1.41-.14,5.24-.15,8.24l.27.49c-.39,7.83.14,20.52-.21,24.8,0,1.89.09,4.22.13,6.1l-.14-.1c0,5.24-.05,7.85,0,14.32l-.1-1.32c0,3.65.41,4.61.42,8l-.21,1c0,2.19,0,4.37,0,6.56L7.4,246c2.2,0,4.38,0,6.55-.09a4.85,4.85,0,0,1-1.33.1c3,0,11.6.14,10.51-.15.08.19,6.58,0,10-.06l-.54.14c2.9-.18,3-.23,7-.28,1,0,.84.11-.43.08,3.2.07,2.49-.13,6.37-.06l-1.44.09c3.29,0,3,0,4.84-.14a64.52,64.52,0,0,1,6.74.16,32,32,0,0,1,4.19-.14c.26,0-.45.07-.8.09,5.51.09,8.19-.16,12,0a2.06,2.06,0,0,0,.64.09l-7.57,0c0,.12,3.53.15.72.32,2.84-.09,7.69-.3,11.14-.24l.45,0-.36,0c.8,0,1.51,0,2.18,0l2.86,0c.4.11,4,.06,5.81.07-.14-.14,2.16-.12,0-.24a12.16,12.16,0,0,1-1.5,0l-.75,0H80.46c1.4-.07,2.85-.14,4.8-.06l2.46-.22c2.41.19,7.06.3,7.71.42,5.38-.08,12.68-.05,16.06-.32a13.8,13.8,0,0,1,2.33.12c-.88,0-1.93,0-2.41.06,3.06-.07,9.07,0,9.8-.21,3.85.08-2.17.17,3.13.14l-.72.06c10.43.29,16.95-.48,28.51-.1-.8,0-1.2,0-1.37-.06,13.18.17,27.15-.16,40.16.11,3.69,0,4.09-.07,6.35-.16l.8.15,3.85-.17c5.47-.13,9.47.37,16.4.13l-.9-.1c2.49,0,7.88-.06,7.46,0a12.23,12.23,0,0,1,1.79,0l.08.08,6.1-.14c4.74.06-.74.32,6.17.33a63.27,63.27,0,0,0,6.35-.28,18.32,18.32,0,0,1-2.72-.13l2.35,0c.42-.23,2.23-.47-3.54-.63l-4,.14-1.29-.11h3.38a38,38,0,0,0-4.5,0,12.2,12.2,0,0,0-1.68-.12l-3.94.22c-.48-.09,1.76-.18-.88-.23-1.85.1,1.77.2-1.29.27a21.86,21.86,0,0,0-3.62-.1c-.31-.06.16-.1,1.06-.12-2,.07-5.32,0-6.35.15-2-.13-6.78,0-6.59-.19-.63.06-3.53.18-5.38.18,3.37-.26-6.9,0-6-.29-2.5.23-9,.1-13.43.23.25,0,.73,0,1.12,0-2.48,0-3.21-.09-4.8-.14-.32.2-4.2.24-6.28.36-3.05-.18,1.85-.23.89-.41.15.16-5.29.16-4.26.29a23.47,23.47,0,0,1-3.21-.22c-.41.25-2.17.05-4.1.2a34.54,34.54,0,0,0-4.57-.16C159.94,244.69,163.24,244.6,163.24,244.6ZM75.11,245Zm-7.41,0h3.22c.26.05,0,.1-.77.1C70.55,245.09,68.81,245.07,67.7,245Zm15.67,1a11,11,0,0,1-1.73,0h2l.14,0A2.65,2.65,0,0,1,83.37,246Z"/><path class="cls-1" d="M85.48,245.81H86l-.7,0-.41,0Z"/><path class="cls-1" d="M245.67,98.12V98l0,.33Z"/><polygon class="cls-1" points="1.45 210.03 1.42 210.04 1.45 210.69 1.45 210.03"/><path class="cls-1" d="M245.19,138.91a4.87,4.87,0,0,0,0,.53A4.17,4.17,0,0,0,245.19,138.91Z"/><path class="cls-1" d="M245.16,156.53l0,2.49C245.13,157.94,245.15,157.15,245.16,156.53Z"/><path class="cls-1" d="M245.09,170.07a.89.89,0,0,0,.06.27v0Z"/><path class="cls-1" d="M199.4,1.28h-.53C197.65,1.32,198.48,1.31,199.4,1.28Z"/><path class="cls-1" d="M245.25,18.78c0-.68,0-1.35-.06-2.06A9.05,9.05,0,0,0,245.25,18.78Z"/><path class="cls-1" d="M127.82,1.45h0Z"/><path class="cls-1" d="M245.19,13.74c0,1.14,0,2.09,0,3C245.19,15.78,245.21,14.68,245.19,13.74Z"/><path class="cls-1" d="M245,228.79v.65s0,0,0,.08Z"/><path class="cls-1" d="M245,229.52l0,.72A6.19,6.19,0,0,0,245,229.52Z"/><path class="cls-1" d="M245.09,231.77l0-1.53C245.06,230.77,245.05,231.42,245.09,231.77Z"/><path class="cls-1" d="M245.09,210.86l-.05-.21A.52.52,0,0,0,245.09,210.86Z"/><path class="cls-1" d="M245.07,205.41c0,1.3-.1,3.26-.07,5.07l0,.17C245,209.8,245.16,206.64,245.07,205.41Z"/><path class="cls-1" d="M245.7,182.66l0,4.56c.06-.79.13-1.84.14.23C246,181.7,245.68,188.64,245.7,182.66Z"/><path class="cls-1" d="M245.78,168.5c0,2.45.08,0,.11.1C245.84,167,245.83,166.67,245.78,168.5Z"/><path class="cls-1" d="M245.78,66.17l.13.24C245.89,64.52,245.86,66.4,245.78,66.17Z"/><polygon class="cls-1" points="245.12 46.61 245.04 48.45 245.16 49.32 245.12 46.61"/><polygon class="cls-1" points="246.03 35.05 246.05 35.88 246.01 32.72 246.03 35.05"/><path class="cls-1" d="M107.91.22l.57.16C109.76.35,110,.17,107.91.22Z"/><path class="cls-1" d="M33.71.38a34.88,34.88,0,0,0-4.18,0C31.2.34,32.86.4,33.71.38Z"/><polygon class="cls-1" points="0.19 190.35 0.13 188.86 0.18 191.67 0.19 190.35"/></g></g></svg>