<svg xmlns="http://www.w3.org/2000/svg" viewBox="0 0 258.59 4.09"><defs><style>.cls-1{fill:#a6a6a6;}</style></defs><title>rule line</title><g id="Layer_2" data-name="Layer 2"><g id="Layer_1-2" data-name="Layer 1"><path class="cls-1" d="M258.53.83c.13,0,.06,0-.32,0l-.27,0Z"/><path class="cls-1" d="M256,.8c-.44,0-.95,0-.66.08l1-.06a3.11,3.11,0,0,1,.59,0c.14,0,.59,0,.79,0-.49,0-1.11,0-1.75,0C255.84.82,256,.81,256,.8Z"/><path class="cls-1" d="M219.35.6h0Z"/><path class="cls-1" d="M196.63.46c.18,0,.25,0,.26,0C196.73.43,196.6.44,196.63.46Z"/><path class="cls-1" d="M192.76.26H193A.56.56,0,0,0,192.76.26Z"/><path class="cls-1" d="M219.35.6l-.61,0S219.05.59,219.35.6Z"/><path class="cls-1" d="M251,.94l.33,0H251Z"/><path class="cls-1" d="M229.36.53h.18l.16-.05Z"/><path class="cls-1" d="M237,.56a.42.42,0,0,0-.3.12,1.32,1.32,0,0,1,.38-.06S237.1.58,237,.56Z"/><path class="cls-1" d="M249.23.75h0Z"/><path class="cls-1" d="M223.86.47l-.07,0S223.82.46,223.86.47Z"/><path class="cls-1" d="M8.94,1.05s0,0,0,0S8.88,1,8.94,1.05Z"/><path class="cls-1" d="M0,.8H0Z"/><path class="cls-1" d="M185.66.06h0C185.88.05,185.77.05,185.66.06Z"/><path class="cls-1" d="M120.51.56c.74,0-1.2.07-.09.12C120.32.66,121.43.59,120.51.56Z"/><path class="cls-1" d="M250.75.93h0Z"/><path class="cls-1" d="M120.42.68h0Z"/><path class="cls-1" d="M169.31.2l.16.06S169.43.23,169.31.2Z"/><path class="cls-1" d="M181.49.37l-.3,0A1.67,1.67,0,0,0,181.49.37Z"/><path class="cls-1" d="M163,.42a2,2,0,0,0-.44,0h.07A1.1,1.1,0,0,1,163,.42Z"/><path class="cls-1" d="M156.4.44l.12,0h-.12Z"/><path class="cls-1" d="M29,1.24a1,1,0,0,1-.3-.1C28.75,1.22,27.78,1.24,29,1.24Z"/><path class="cls-1" d="M251,.91a.81.81,0,0,1-.2,0H251S251,.91,251,.91Z"/><path class="cls-1" d="M162.71,1.47l-1,0Z"/><path class="cls-1" d="M76.18,1.17h0Z"/><path class="cls-1" d="M158.57,1.45a5.58,5.58,0,0,0-.59-.09l-.13,0Z"/><path class="cls-1" d="M28.64,1.14h0Z"/><path class="cls-1" d="M21.75,1.31c1,0,.47-.11.68-.18,1.19,0,.55.1,1,.16.74,0,1.31-.13,1.87-.12,0,0,.14,0,0,.05.78-.09,2.33,0,3.24-.11l.12,0C28.5,1.07,28.47,1,28.5,1a3.21,3.21,0,0,1,1,0,1.11,1.11,0,0,0-.42.06l.46,0c.43.14-.63.05-.63.14.91,0,2-.14,2.67-.1.15.13-1.63,0-.7.16L29.8,1.12c.82.21-.66,0,.1.2,1.42.05,1.59-.05,3,0,.32-.08-.1-.11.22-.19,2-.12,1.59.35,3.07.18a3.05,3.05,0,0,1,1.59-.17l-.36.16c1.38,0,.79-.23,2.23-.12-.25.07-1.08.05-.87.07.93.14.66-.08,1.38-.08l.15.14L45,1.17c-.09,0-.37.09,0,.14,2.05-.07,4.38,0,6.36.12l.75-.13c.18,0,.33.06.14.08.77.05,0-.08.41-.13s.58.07.3.11a37.46,37.46,0,0,1,5.31-.1L58,1.3c1.12.05,1.26-.27,2.3-.15l-.2,0c2.42,0,5.1-.08,6.95.09.35-.17,2.39.05,2.55-.18a29.32,29.32,0,0,0,2.93.19c.52,0,.78-.13,1.42-.16l0,.11.87-.12.47.11.6,0c-.24,0-.51,0-.47-.07a13.15,13.15,0,0,1,2.32.09L80,1.1a4.52,4.52,0,0,1-.72.08c1.19-.1.21.09,1.3,0-.14,0,.08,0,.11-.07.54,0,1.78,0,2.7,0l-.18.06,5.34-.09c-.66,0-.51-.09,0-.1l.22.07C89.17,1,88.25,1,89,1s.47.07.07.09l.85,0s-.15,0-.2.05c.34,0,1.45,0,2,0l0,0L95.9,1S96.52,1,97,1l3.68,0c.94,0,.27,0,.7-.06.06,0,1.4,0,.71.06l4.08,0c-.22,0-.47,0-.34,0a3.83,3.83,0,0,1,.79,0h-.1c2.28-.06,5.26.13,7.08.05h-.1l1.88,0c.87,0-.52,0,.12.06,2-.07,3.21,0,4.88,0,1.3.17,4.6,0,6.34.16l-.1-.05a3.82,3.82,0,0,1,.88.05s-.49-.05-.21-.07c3.83,0,7.9.15,11.82.27,1.44,0,.82-.33,2.63-.16l-.52.12c2.9-.12,5.92.07,8.76-.06a1.21,1.21,0,0,1-.45.08,7.62,7.62,0,0,0,2.22-.07c.44,0,.1.08.38.12.6.07,1.5-.12,1.82,0,.06,0-.17,0-.28,0,.4-.05,1.83,0,1.45-.1,1.07.06,2-.05,2.89,0,.55-.14,1.82.08,2-.13-.07.21,1.87.18,2.54.08-.22.07.59.07.32.16.77,0,1.47,0,1.34-.14,1.41.26,2.84-.21,3.64.14,2.28-.11,4.39-.19,6.44-.24-.07.23-2.27,0-2.18.26,2-.09,3.07-.29,5-.23.5,0-.29.11-.45.15,1.94-.1,3.75,0,5.48-.1a1,1,0,0,1-.36.06c.34,0,.79,0,.75-.07l-.33,0c-.55-.16,1.35-.33,1.41-.41-.58.31,1.71.08.79.47.23,0,.51-.07.46-.14.33,0,.44.06.1.15,1.22-.06.78-.18,1.89-.18,0,.06-.23.08-.34.14a7.84,7.84,0,0,1,2.06-.16c-.06,0,.05.07-.23.07,1.61,0,2.74-.28,4.5-.18-.52.23.6.08.69.28l.95-.06-.38-.1c.83,0,1.56-.14,2.28-.08l-.62.08,1.55,0-.88-.07c.84-.1-.09-.25,1-.2-.23,0,.83,0,1.26.12h0a5.7,5.7,0,0,1,1.44-.08c.16.06-.12.22,0,.26.4-.16,1.94-.05,2.46-.22-.18,0-.18.14-.13.16l.34-.13c.39,0,.44.06.38.14,1.16,0-.37-.24,1-.14a1.83,1.83,0,0,1-.28.05c1.38.05,2.67-.09,3.93,0,.38.19-1.1.05-.68.21,1.83,0,3.78-.23,5.55-.19l-.33,0c.25-.25,1.32.12,2.21,0-.22,0-.29.14-.23.11,1.21,0,2.48-.07,4.31-.15l-.23.06c.72.05,1.88,0,2.65.05.23-.06.67-.05.4-.14,2.38.32,4.53-.17,6.64.08-.25,0-.6,0-.4,0l1.8-.05c-.15-.09-.24-.05-.62-.12A7,7,0,0,1,230,.82c-.8.05,0,.13.36.18-.06,0,.06-.05,0-.08.94.14.16-.17,1.44-.07l-.07,0c.48,0,.92-.08,1.44-.07.21.1-.51.05-.55.12a15.06,15.06,0,0,1,2.09-.08l-1.06.05a7.62,7.62,0,0,0,1.33.09H235l1.23,0-.31,0c.9-.22,1.84-.05,3.07-.19-1.19.13-.2.08-.29.16.31,0,.79.05.65.08.58-.08,1,0,1.78-.06,0,0,.62,0,.49.06.75,0-.18,0-.11-.08,1.16-.09,2.72.08,4.39,0,1.44,0,1.7-.12,3-.15.45,0-.36.07-.36.07.72,0,1.27,0,2,0-.14,0,0,0,.22,0,.54,0,.36-.05,1.09,0l-.55.06,1.95-.07c.18,0-.4,0-.64.06.76,0,2,0,2.19-.07h-.49c.28,0,.15,0-.06,0a3.81,3.81,0,0,1-1,0h.47c-.49-.07-1.91,0-2.87,0l.4-.06-1,.06c-.21,0-.35-.06.12-.07-.69,0-.61,0-1.2,0-.06,0,0,0,0,0l-.68,0c.14,0-.11-.06.31,0-1.21-.06-2,.05-2.41,0h.1c-1.67,0-.16.06-1.41.14l-.85-.17-.16.07c-.18,0-.52,0-.46,0-.64.05.11,0-.26.08a23.08,23.08,0,0,1-2.48-.1c-.3.07.79.05-.09.1a10.9,10.9,0,0,0-1.79-.05c.23-.08.95,0,.19-.1a13.8,13.8,0,0,1-2.12,0,17.63,17.63,0,0,1-2.47.08c.07,0-2-.08-3-.13l0,0a9.28,9.28,0,0,1-2,.13c0-.08.16-.11.57-.15h-.71a4.58,4.58,0,0,1-.84.08l.18-.11c-.94,0-1.9.12-3.11,0-.07.11,1,.29-.32.36,0-.06-.09-.15.24-.18a2.78,2.78,0,0,1-.61,0l.51-.09c-.55,0-.28.08-.73.07,0-.08-.32-.06-.26-.12a5.2,5.2,0,0,0,.56,0,6.19,6.19,0,0,1-1.3-.13c0,.05,0,.11-.36.12-.95,0-.33-.1-.88-.14-.22,0-.82,0-.84.12a.94.94,0,0,1-.43-.1c-.49.05-2.27,0-1.73.15h0c-1.6.13-3.31-.08-4.9,0v0c-.94,0-2.1,0-2.77.12-.28,0-.66-.08-.54-.14a10.08,10.08,0,0,1-1.85,0c.73-.09-.25-.08.74-.06a8.59,8.59,0,0,0-2.15,0c.34-.12-.71-.16-1.16-.12l.66.09c-.5,0-.94,0-1.39,0l.25-.16c-1.92-.22-3.47.34-4.93,0-.51.12,1,.08.59.22-.88,0-1.81-.27-2.08-.27-1.21-.1-1.13.25-2.4.18.16.06.32.23-.63.29S196,.43,196.58.38c.21,0,.32,0,.31,0,.28,0,.66,0,.31-.12l-.12.07c-.43-.07-1.65-.06-1.37-.17-.66.06-.28.11.21.14-1.13-.09-1.77,0-2.94-.07.19,0,.36.11.18.11-1.72-.08-.76.12-1.92.15-.66-.1.24-.23-.93-.15-.71-.07-.15-.17.13-.22a13.89,13.89,0,0,1-2.59-.11l.56,0c-.34,0-.61,0-.89,0l.32.13c-.33,0-.61,0-.6-.08-.34.09.26.21-.41.33-.44-.07-1.34.07-1.49-.1,1.38.06-.15-.17,1-.2a5.69,5.69,0,0,1-.83,0c-.05,0,0,0,.14,0-1.32-.15-.61.2-2,.19.18-.09-.31-.18-.54-.16.56,0,.27.16-.24.24a7.76,7.76,0,0,0-1.41,0l.52,0a4.71,4.71,0,0,1-1.22.11c-.06-.07.55-.05.33-.08-.68.16-1.53-.17-2.48-.06-.44-.06,0-.17-.43-.22-1.06.13-1.14-.12-2.26,0,.32.13.38.1-.41.22l1.84-.09L176.2.45c.55,0,1.17-.08,1.5-.06-.56.1-.5.07-.24.18-.76-.19-1.5.11-2.38,0l0-.3c-1.32-.14-2.34.16-4.05.09l.55,0A10.05,10.05,0,0,1,170,.46c.06-.1-.29-.14-.53-.2,0,.07-1.25,0-1.4.19l-.76-.12c-1.38,0-1.58.28-2.9.25.39-.11-.21-.17.68-.25-.44,0-.84,0-.85,0-.26-.06-1.23.13-1.63,0a1.87,1.87,0,0,1-.75.14c-.05,0,0-.05,0-.05s-.77.06-.34.17c-1.36-.29-3.81,0-5-.22l-3,.07c.06,0,0,0,.17,0-1.21-.08-.74.25-2.12.16-.7-.14.73-.08.29-.13-.19-.28-1.66,0-2.59-.11l.23,0c-.71-.09-1.73.11-2.89.1,0,0,.06,0,0,0a32,32,0,0,1-3.4.22c.34-.1.5-.05.29-.15-.5,0,.15.16-.85.19a5,5,0,0,1-1.14-.2h.94a8.87,8.87,0,0,0-1.71,0l.06-.06c-1.44,0-1.46.17-3,.17l.16,0c-.85.14-.71-.07-1.56,0l-.25-.13c-.56,0-2,.13-3,.16.57-.09,1.74-.15,2.47-.21-.56,0-1.88,0-2.17.08a5.77,5.77,0,0,1,.72,0,19.08,19.08,0,0,1-2.67.15c.19-.23-2.88,0-3.68-.2-2,.09-3.86,0-6.14,0,.81.12-.66,0-.52.13h-.78l-1.6-.07c-.38,0,.5,0,.45-.06A9.56,9.56,0,0,1,118,.49c.16,0-.4.06-1.06.05l.93,0c-1.62.07-1.4-.08-3,0l.52,0c-.84,0-3.09,0-3.91.1-.15,0-.34,0,0-.05-2,0-4.45.1-6,.05l.16,0c-.38,0-.65,0-1.12,0,0,0,.15,0,0,0s-1,0-1.49,0l.42,0c-2,0-3,.05-4.63.07a17.16,17.16,0,0,0-2.3-.11h0c-2.28,0-3.87,0-6,.06C89.24.52,86.12.55,84,.46c.32,0,0,.09-.42.1s-1.37.06-1.29,0h.18A15.41,15.41,0,0,0,80.31.41l-.13.15C78.11.31,74.76.6,73.63.37c-.5,0-1.12,0-1.61.07l0-.1C70.66.3,70,.28,68.26.28l.35-.07c-1,0-1.22.31-2.11.31L66.24.35a50.07,50.07,0,0,0-5,0s.08-.08.35-.09c-.79,0-3.07-.14-2.78.12a9.79,9.79,0,0,0-2.64,0l.14-.12A7.38,7.38,0,0,1,54.4.53c-.26,0-.23-.1.11-.06-.84-.07-.66.11-1.68.05l.38-.08a3.88,3.88,0,0,0-1.28.12A5.14,5.14,0,0,1,50.15.42,2.69,2.69,0,0,1,49,.55c-.07,0,.12-.07.21-.08C47.8.39,47.09.61,46.09.5c0,0-.09-.07-.17-.08,1.16,0,2.09,0,2,0S47,.31,47.73.15a20.46,20.46,0,0,1-2.94.22l-.12,0h.09a3.45,3.45,0,0,0-.57,0c-.29,0-.48,0-.76,0a7.47,7.47,0,0,0-1.53,0c0,.12-.57.1,0,.2-.08,0,.08,0,.39,0h1.33a4.27,4.27,0,0,1-1.27,0L41.7.67c-.64-.17-1.86-.25-2-.35a34.62,34.62,0,0,0-4.25.27A1.23,1.23,0,0,1,34.81.5c.23,0,.51,0,.63,0a16.37,16.37,0,0,0-2.58.18c-1-.07.57-.14-.83-.11l.19-.05c-2.75-.2-4.48.37-7.53.11a1.35,1.35,0,0,1,.36,0c-3.48-.09-7.17.12-10.61,0A11.6,11.6,0,0,0,12.77.7L12.55.63l-1,.09C10.09.77,9,.59,7.21.7l.23,0c-.65,0-2.08,0-2,0A2.4,2.4,0,0,1,5,.74l0,0L3.37.76c-1.25,0,.19-.07-1.63,0L.06.78h.1c-.11,0-.59,0,.93.08H2.15L2.5.9H1.6c.51,0,.83,0,1.19,0l.45,0,1,0c.12,0-.47,0,.23.06C5,.94,4,.9,4.85.9a5.64,5.64,0,0,0,1,0c.09,0,0,0-.27,0,.53,0,1.4,0,1.67,0A15.86,15.86,0,0,1,8.94,1C9.11,1,9.88,1,10.36,1c-.89.1,1.83,0,1.59.15.66-.09,2.38,0,3.55-.06a1.32,1.32,0,0,1-.3,0c.66,0,.85.06,1.27.09A9.71,9.71,0,0,1,18.13,1c.81.12-.49.13-.24.23,0-.09,1.4-.07,1.13-.15a3,3,0,0,1,.85.14c.11-.15.57,0,1.08-.11.89.08.23.15,1.21.11C22.63,1.26,21.75,1.31,21.75,1.31ZM45,1.13Zm2,0h-.85c-.07,0,0-.08.2-.08C46.24,1.07,46.7,1.09,47,1.13ZM42.85.28c.31,0,.41,0,.46,0l-.54,0h0A.44.44,0,0,1,42.85.28Z"/><path class="cls-1" d="M42.29.44h-.12l.18,0,.11,0Z"/><path class="cls-1" d="M219.62.62h0l.09,0Z"/><polygon class="cls-1" points="74 1.24 74 1.22 73.83 1.24 74 1.24"/><path class="cls-1" d="M230.4,1l.14,0Z"/><path class="cls-1" d="M235.05,1l.66,0Z"/><path class="cls-1" d="M238.63,1a.1.1,0,0,0,.07,0h0Z"/><path class="cls-1" d="M181.74,1.37h-.14C181.27,1.41,181.49,1.4,181.74,1.37Z"/><path class="cls-1" d="M198.67,1a4.86,4.86,0,0,1-.55.07C198.42,1.1,198.66,1.11,198.67,1Z"/><polygon class="cls-1" points="162.83 1.48 162.83 1.47 162.72 1.47 162.83 1.48"/><path class="cls-1" d="M197.34,1.09a4,4,0,0,0,.78,0A6.77,6.77,0,0,0,197.34,1.09Z"/><path class="cls-1" d="M254.14.9h0Z"/><path class="cls-1" d="M254.33.9h0Z"/><path class="cls-1" d="M254.93.88h0Z"/><path class="cls-1" d="M249.4.93l-.05,0S249.4.94,249.4.93Z"/><path class="cls-1" d="M248,1c.35,0,.86,0,1.34,0l0,0C249.12,1,248.29.92,248,1Z"/><path class="cls-1" d="M242,.67l1.21,0c-.21,0-.49-.07.06-.07C241.7.54,243.54.69,242,.67Z"/><path class="cls-1" d="M238.21.61c.65,0,0,0,0-.07C237.83.57,237.73.58,238.21.61Z"/><path class="cls-1" d="M211.19.49l.06-.12C210.75.38,211.25.42,211.19.49Z"/><polygon class="cls-1" points="206.02 1.14 206.5 1.22 206.74 1.1 206.02 1.14"/><polygon class="cls-1" points="202.97 0.21 203.18 0.2 202.35 0.24 202.97 0.21"/><path class="cls-1" d="M157.57.32l.15.14C158.06.44,158.13.27,157.57.32Z"/><path class="cls-1" d="M138,.55a3.27,3.27,0,0,0-1.1,0C137.31.52,137.75.56,138,.55Z"/><polygon class="cls-1" points="79.2 0.44 79.59 0.41 78.85 0.43 79.2 0.44"/><path class="cls-1" d="M258.53,3.69h0Z"/><path class="cls-1" d="M256,3.69h0Z"/><path class="cls-1" d="M219.35,3.62h0Z"/><path class="cls-1" d="M196.63,3.56h0Z"/><path class="cls-1" d="M192.76,3.49H193A.8.8,0,0,0,192.76,3.49Z"/><path class="cls-1" d="M219.35,3.62h-.61S219.05,3.62,219.35,3.62Z"/><path class="cls-1" d="M251,3.72h0Z"/><path class="cls-1" d="M229.36,3.6h0Z"/><path class="cls-1" d="M237,3.62a1.44,1.44,0,0,0-.3,0h.38S237.1,3.62,237,3.62Z"/><path class="cls-1" d="M249.23,3.67h0Z"/><path class="cls-1" d="M223.86,3.58h0Z"/><path class="cls-1" d="M8.94,3.74Z"/><polygon class="cls-1" points="0.04 3.69 0.16 3.69 0.19 3.69 0.04 3.69"/><path class="cls-1" d="M185.66,3.4h0Z"/><path class="cls-1" d="M120.51,3.4c.74.06-1.2.08-.09.15C120.32,3.52,121.43,3.44,120.51,3.4Z"/><path class="cls-1" d="M250.75,3.72h0Z"/><path class="cls-1" d="M120.42,3.55Z"/><path class="cls-1" d="M169.31,3.41l.16,0S169.43,3.42,169.31,3.41Z"/><path class="cls-1" d="M181.49,3.51h0Z"/><path class="cls-1" d="M163,3.5a3,3,0,0,0-.44,0H163Z"/><path class="cls-1" d="M156.4,3.49l.12,0h-.12Z"/><path class="cls-1" d="M29,3.82l-.3,0C28.75,3.81,27.78,3.82,29,3.82Z"/><path class="cls-1" d="M251,3.71h0S251,3.71,251,3.71Z"/><path class="cls-1" d="M162.71,4h0Z"/><path class="cls-1" d="M76.18,3.93h0Z"/><path class="cls-1" d="M158.57,4A5.63,5.63,0,0,0,158,4l-.13,0Z"/><path class="cls-1" d="M28.64,3.79h0Z"/><path class="cls-1" d="M21.75,3.83c1,0,.47,0,.68-.05a2.79,2.79,0,0,1,1,.05l1.87,0s.14,0,0,0c.78,0,2.33,0,3.24,0h.12c-.14,0-.17,0-.14-.06a9.72,9.72,0,0,1,1,0,4,4,0,0,0-.42,0h.46c.43,0-.63,0-.63,0,.91,0,2,0,2.67,0,.15,0-1.63,0-.7,0l-1.08,0c.82.07-.66,0,.1.07h3c.32,0-.1,0,.22-.06,2,0,1.59.12,3.07.06a9.46,9.46,0,0,1,1.59-.05l-.36.05c1.38,0,.79-.07,2.23,0-.25,0-1.08,0-.87,0,.93,0,.66,0,1.38,0l.15,0,4.71,0c-.09,0-.37,0,0,.05,2.05,0,4.38,0,6.36.06l.75-.05c.18,0,.33,0,.14,0,.77,0,0,0,.41-.05s.58,0,.3,0c1.36,0,3.88-.08,5.31,0H58c1.12,0,1.26-.11,2.3-.05h-.2c2.42,0,5.1,0,6.95.08.35-.09,2.39,0,2.55-.08,1.38.06,1,.08,2.93.13.52,0,.78-.08,1.42-.09l0,.06.87-.06.47.07h.6a1.53,1.53,0,0,1-.47,0c.47,0,1,0,1.5,0s.8,0,.82.06L80,3.92A4.46,4.46,0,0,1,79.3,4c1.19-.06.21.07,1.3,0-.14,0,.08,0,.11,0,.54,0,1.78,0,2.7,0l-.18,0h5.34c-.66,0-.51-.11,0-.12l.22.08c.35-.05-.57,0,.15-.08s.47.08.07.1l.85,0s-.15,0-.2.06c.34,0,1.45.08,2,0l0,0L95.9,4A6.53,6.53,0,0,1,97,3.9c1.11,0,2.34.08,3.68.07.94,0,.27-.05.7-.09.06.06,1.4.05.71.1,1.6,0,2,0,4.08-.06-.22,0-.47,0-.34-.06a2.48,2.48,0,0,1,.79.06h-.1c2.28-.09,5.26.19,7.08.06h-.1l1.88-.07c.87,0-.52.05.12.08,2-.1,3.21,0,4.88,0,1.3.19,4.6,0,6.34.11l-.1,0a4.59,4.59,0,0,1,.88,0S127,4,127.26,4c3.83-.06,7.9.06,11.82.1A19.6,19.6,0,0,1,141.71,4l-.52.08c2.9-.1,5.92,0,8.76-.09a2.16,2.16,0,0,1-.45,0,12.84,12.84,0,0,0,2.22,0c.44,0,.1,0,.38.07.6,0,1.5-.08,1.82,0,.06,0-.17,0-.28,0,.4,0,1.83,0,1.45-.06,1.07,0,2,0,2.89,0,.55-.07,1.82,0,2-.07a12.18,12.18,0,0,0,2.54,0c-.22,0,.59,0,.32.08.77,0,1.47,0,1.34-.08,1.41.13,2.84-.1,3.64.06l6.44-.13c-.07.11-2.27,0-2.18.12,2,0,3.07-.13,5-.11.5,0-.29.05-.45.07,1.94-.05,3.75,0,5.48-.06l-.36,0a2.93,2.93,0,0,0,.75,0h-.33c-.55-.06,1.35-.13,1.41-.17-.58.13,1.71,0,.79.19.23,0,.51,0,.46-.06.33,0,.44,0,.1.06,1.22,0,.78-.07,1.89-.07a2.32,2.32,0,0,1-.34,0,19.57,19.57,0,0,1,2.06-.06c-.06,0,.05,0-.23,0,1.61,0,2.74-.11,4.5-.07-.52.08.6,0,.69.1l.95,0-.38,0c.83,0,1.56-.06,2.28,0l-.62,0,1.55,0-.88,0c.84,0-.09-.09,1-.08-.23,0,.83,0,1.26,0h0a12.64,12.64,0,0,1,1.44,0c.16,0-.12.07,0,.09.4-.06,1.94,0,2.46-.08-.18,0-.18,0-.13.06l.34-.05c.39,0,.44,0,.38.05,1.16,0-.37-.09,1-.05l-.28,0h3.93c.38.06-1.1,0-.68.07,1.83,0,3.78-.08,5.55-.07h-.33c.25-.08,1.32,0,2.21,0-.22,0-.29.05-.23,0,1.21,0,2.48,0,4.31,0l-.23,0H221c.23,0,.67,0,.4,0,2.38.1,4.53-.06,6.64,0h1.4a4.8,4.8,0,0,0-.62,0c.23,0,.74,0,1.18,0-.8,0,0,0,.36.06-.06,0,.06,0,0,0,.94,0,.16-.05,1.44,0h-.07l1.44,0c.21,0-.51,0-.55,0,.73,0,1.44,0,2.09,0l-1.06,0c.72,0,.8,0,1.33,0H235l1.23,0h-.31c.9-.07,1.84,0,3.07-.06-1.19,0-.2,0-.29.05.31,0,.79,0,.65,0,.58,0,1,0,1.78,0a4.42,4.42,0,0,1,.49,0c.75,0-.18,0-.11,0l4.39,0,3,0c.45,0-.36,0-.36,0h4l2.19,0h-.49c.28,0,.15,0-.06,0h-3.36l.4,0-1,0c-.21,0-.35,0,.12,0h-1.2c-.06,0,0,0,0,0h-.68a1.93,1.93,0,0,1,.31,0h-2.31c-1.67,0-.16,0-1.41,0l-.85-.05-.16,0a3.93,3.93,0,0,1-.46,0c-.64,0,.11,0-.26,0-.83,0-2.29,0-2.48,0s.79,0-.09,0c-.26,0-1,0-1.79,0,.23,0,.95,0,.19,0-.46,0-1.48,0-2.12,0h-2.47l-3,0h0c-.2,0-1.23,0-2,0a2.25,2.25,0,0,1,.57,0h-.71c-.16,0-.38,0-.84,0l.18,0c-.94,0-1.9,0-3.11,0-.07,0,1,.08-.32.11,0,0-.09-.05.24-.06a5.53,5.53,0,0,1-.61,0l.51,0c-.55,0-.28,0-.73,0,0,0-.32,0-.26,0h.56c-.5,0-1.1,0-1.3,0,0,0,0,0-.36,0a8.13,8.13,0,0,1-.88,0,6.15,6.15,0,0,0-.84,0,2.71,2.71,0,0,1-.43,0,13.41,13.41,0,0,0-1.73,0h0c-1.6,0-3.31,0-4.9,0h0c-.94,0-2.1,0-2.77,0-.28,0-.66,0-.54,0-.73,0-.81,0-1.85,0a4.6,4.6,0,0,1,.74,0c-.93,0-1.15,0-2.15,0,.34,0-.71-.05-1.16,0l.66,0h-1.39l.25-.06c-1.92-.08-3.47.12-4.93,0-.51,0,1,0,.59.08-.88,0-1.81-.1-2.08-.1-1.21,0-1.13.09-2.4.07.16,0,.32.08-.63.1s-1.09-.1-.53-.11a.86.86,0,0,1,.31,0c.28,0,.66,0,.31,0l-.12,0a10.45,10.45,0,0,1-1.37-.06c-.66,0-.28,0,.21,0-1.13,0-1.77,0-2.94,0,.19,0,.36,0,.18,0-1.72,0-.76.05-1.92.05-.66,0,.24-.08-.93-.05-.71,0-.15-.07.13-.09-1.06.05-2,0-2.59,0l.56,0h-.89l.32,0a3.67,3.67,0,0,1-.6,0c-.34,0,.26.08-.41.13a14.6,14.6,0,0,1-1.49,0c1.38,0-.15-.06,1-.07-.22,0-.5,0-.83,0-.05,0,0,0,.14,0-1.32-.06-.61.07-2,.07.18,0-.31-.07-.54-.07.56,0,.27.07-.24.1-.87,0-1,0-1.41,0l.52,0a10.38,10.38,0,0,1-1.22,0c-.06,0,.55,0,.33,0-.68.07-1.53-.07-2.48,0-.44,0,0-.07-.43-.09-1.06.05-1.14-.06-2.26,0,.32,0,.38,0-.41.09l1.84,0-1.18.08,1.5,0c-.56.05-.5,0-.24.08-.76-.08-1.5,0-2.38,0l0-.13c-1.32-.06-2.34.06-4.05,0l.55,0c-.23,0-1.05,0-1.61,0,.06,0-.29-.06-.53-.09a11.15,11.15,0,0,0-1.4.09l-.76-.07c-1.38,0-1.58.13-2.9.12.39-.05-.21-.09.68-.12a5.16,5.16,0,0,0-.85,0c-.26,0-1.23.06-1.63,0a3.14,3.14,0,0,1-.75.06c-.05,0,0,0,0,0s-.77,0-.34.08c-1.36-.14-3.81,0-5-.11l-3,0a.37.37,0,0,1,.17,0c-1.21,0-.74.14-2.12.09-.7-.08.73,0,.29-.07a23.76,23.76,0,0,0-2.59-.07h.23c-.71-.06-1.73.06-2.89,0,0,0,.06,0,0,0-.79.08-2.29.11-3.4.13.34-.06.5,0,.29-.1-.5,0,.15.11-.85.12a6.67,6.67,0,0,1-1.14-.13h.94a13.89,13.89,0,0,0-1.71,0l.06,0c-1.44,0-1.46.11-3,.1l.16,0c-.85.1-.71-.06-1.56,0l-.25-.1c-.56,0-2,.09-3,.11.57-.07,1.74-.11,2.47-.15-.56,0-1.88,0-2.17,0,.22,0,.5,0,.72,0a23.8,23.8,0,0,1-2.67.12c.19-.19-2.88,0-3.68-.2-2,.07-3.86,0-6.14,0,.81.15-.66,0-.52.16-.53,0-.73,0-.78,0l-1.6-.09c-.38,0,.5,0,.45-.07a8.15,8.15,0,0,1-1.25-.1c.16,0-.4.07-1.06,0l.93.07c-1.62.08-1.4-.12-3,0l.52-.05c-.84,0-3.09,0-3.91.12-.15,0-.34-.06,0-.07-2,0-4.45.13-6,.06l.16,0a8,8,0,0,1-1.12,0s.15,0,0,0-1,.06-1.49,0l.42,0c-2-.05-3,.1-4.63.12a12.82,12.82,0,0,0-2.3-.15h0c-2.28,0-3.87.09-6,.13-1.31-.11-4.43,0-6.53-.1.32,0,0,.08-.42.09s-1.37.07-1.29,0h.18a15.31,15.31,0,0,0-2.18-.06l-.13.11c-2.07-.16-5.42.07-6.55-.08L72,3.48l0-.06c-1.39,0-2.08,0-3.79,0l.35,0c-1,0-1.22.17-2.11.17l-.26-.08c-1.69,0-3.39-.07-5,0a1.14,1.14,0,0,1,.35,0,19.17,19.17,0,0,0-2.78.06,24.21,24.21,0,0,0-2.64,0l.14,0a17.28,17.28,0,0,1-1.86.1c-.26,0-.23,0,.11,0-.84,0-.66,0-1.68,0l.38,0a8,8,0,0,0-1.28.05,14.28,14.28,0,0,1-1.78-.05,7,7,0,0,1-1.11,0c-.07,0,.12,0,.21,0-1.45,0-2.16.06-3.16,0a.46.46,0,0,0-.17,0h2s-.93,0-.19-.1c-.75,0-2,.1-2.94.09l-.12,0h.09c-.21,0-.4,0-.57,0h-.76c-.1,0-1.07,0-1.53,0,0,0-.57,0,0,.07h1.72a10.43,10.43,0,0,1-1.27,0l-.65.07c-.64-.05-1.86-.08-2-.12-1.43,0-3.35,0-4.25.1a3.5,3.5,0,0,1-.61,0l.63,0c-.8,0-2.39,0-2.58.06-1,0,.57,0-.83,0l.19,0c-2.75-.05-4.48.12-7.53,0H14.44c-1,0-1.08,0-1.67,0h-.22l-1,0H4.28c.12,0-.47,0,.23,0,.49,0-.47,0,.34,0h1c.09,0,0,0-.27,0H7.2c.53,0,1.79,0,1.74,0h1.42c-.89,0,1.83,0,1.59,0H15.2l1.27,0c.09,0,1.11,0,1.66,0,.81,0-.49,0-.24.06,0,0,1.4,0,1.13,0,.62,0,.53,0,.85,0,.11,0,.57,0,1.08,0,.89,0,.23,0,1.21,0C22.63,3.82,21.75,3.83,21.75,3.83ZM45,3.8Zm2,0h-.85c-.07,0,0,0,.2,0C46.24,3.78,46.7,3.79,47,3.81Zm-4.14-.3a2.27,2.27,0,0,1,.46,0h-.58Z"/><path class="cls-1" d="M42.29,3.56h0Z"/><path class="cls-1" d="M219.62,3.63h0Z"/><polygon class="cls-1" points="74 3.96 74 3.94 73.83 3.96 74 3.96"/><path class="cls-1" d="M230.4,3.75h0Z"/><path class="cls-1" d="M235.05,3.75h0Z"/><path class="cls-1" d="M238.63,3.75h0Z"/><path class="cls-1" d="M181.74,3.92h-.14C181.27,3.93,181.49,3.93,181.74,3.92Z"/><path class="cls-1" d="M198.67,3.77l-.55,0A1.7,1.7,0,0,0,198.67,3.77Z"/><polygon class="cls-1" points="162.83 4.02 162.83 4.02 162.72 4.02 162.83 4.02"/><path class="cls-1" d="M197.34,3.79h.78C197.88,3.79,197.58,3.78,197.34,3.79Z"/><path class="cls-1" d="M254.14,3.71h0Z"/><path class="cls-1" d="M254.33,3.7h0Z"/><path class="cls-1" d="M254.93,3.7h0Z"/><path class="cls-1" d="M249.4,3.72h0Z"/><path class="cls-1" d="M248,3.72h0Z"/><path class="cls-1" d="M242,3.65h1.21c-.21,0-.49,0,.06,0C241.7,3.62,243.54,3.66,242,3.65Z"/><path class="cls-1" d="M238.21,3.63c.65,0,0,0,0,0C237.83,3.62,237.73,3.62,238.21,3.63Z"/><path class="cls-1" d="M211.19,3.58l.06,0C210.75,3.55,211.25,3.56,211.19,3.58Z"/><polygon class="cls-1" points="206.02 3.81 206.5 3.83 206.74 3.79 206.02 3.81"/><polygon class="cls-1" points="202.97 3.48 203.18 3.48 202.35 3.49 202.97 3.48"/><path class="cls-1" d="M157.57,3.43l.15.08C158.06,3.5,158.13,3.41,157.57,3.43Z"/><path class="cls-1" d="M138,3.5a5.55,5.55,0,0,0-1.1,0C137.31,3.48,137.75,3.52,138,3.5Z"/><polygon class="cls-1" points="79.2 3.42 79.59 3.39 78.85 3.41 79.2 3.42"/></g></g></svg>