<svg xmlns="http://www.w3.org/2000/svg" viewBox="0 0 7.99 4.93"><title>star_1</title><g id="Layer_2" data-name="Layer 2"><g id="Layer_1-2" data-name="Layer 1"><path d="M8,2.54c0,.07-.24.23-.72.5A21.24,21.24,0,0,0,5.35,4.18l-.67.5A1.06,1.06,0,0,1,4,4.93a1.18,1.18,0,0,1-.75-.26L2.5,4A16.9,16.9,0,0,0,.06,2.64.11.11,0,0,1,0,2.53c0-.08.08-.16.23-.24L.71,2Q1.63,1.5,2.87.6A2.87,2.87,0,0,1,3.94,0a2.5,2.5,0,0,1,.64.41,11.14,11.14,0,0,0,1.36.89l1.52.81C7.82,2.3,8,2.45,8,2.54ZM6.64,2.11a.16.16,0,0,0,0-.09,4.1,4.1,0,0,1-.75-.4L4.48.76A1.72,1.72,0,0,0,3.86.34L1.91,1.69c-.47.33-.71.53-.73.61A17.7,17.7,0,0,1,3.25,3.52L3.94,4V4C5.3,3,6.2,2.36,6.64,2.11Zm-1.19,0c0,.09-.08.17-.23.23a3.72,3.72,0,0,0-.47.21A3,3,0,0,0,4.28,3a.72.72,0,0,1-.39.25c-.06,0-.19-.12-.4-.36a4.09,4.09,0,0,0-.79-.46,1.29,1.29,0,0,1-.38-.19.66.66,0,0,1,.36-.31l.37-.18a5.12,5.12,0,0,1,.89-.61l.39.25A11.77,11.77,0,0,0,5.39,2,.53.53,0,0,1,5.45,2.12Z"/></g></g></svg>